<svg width="308" height="635" viewBox="0 0 308 635" fill="none" xmlns="http://www.w3.org/2000/svg">
<circle cx="214.5" cy="87.5" r="11" stroke="#D7DDEC" stroke-width="5"/>
<path d="M59.5 440.5C59.5 443.814 56.8137 446.5 53.5 446.5C50.1863 446.5 47.5 443.814 47.5 440.5C47.5 437.186 50.1863 434.5 53.5 434.5C56.8137 434.5 59.5 437.186 59.5 440.5Z" stroke="#FF0000" stroke-width="5"/>
<circle cx="10.5" cy="20.5" r="8" stroke="#376AED" stroke-width="5"/>
<circle cx="295.5" cy="557.5" r="8" stroke="#FF5293" stroke-width="5"/>
<circle cx="86.5" cy="624.5" r="8" stroke="#1AD285" stroke-width="5"/>
<path d="M305.5 10.5C305.5 14.9183 301.918 18.5 297.5 18.5C293.082 18.5 289.5 14.9183 289.5 10.5C289.5 6.08172 293.082 2.5 297.5 2.5C301.918 2.5 305.5 6.08172 305.5 10.5Z" stroke="#FFD700" stroke-width="5"/>
</svg>
