<svg width="207" height="237" viewBox="0 0 207 237" fill="none" xmlns="http://www.w3.org/2000/svg">
<path fill-rule="evenodd" clip-rule="evenodd" d="M-17 115.333C65.4745 115.333 132.333 48.4745 132.333 -34C132.333 -116.475 65.4745 -183.333 -17 -183.333C-99.4745 -183.333 -166.333 -116.475 -166.333 -34C-166.333 48.4745 -99.4745 115.333 -17 115.333ZM-17 190C106.712 190 207 89.7118 207 -34C207 -157.712 106.712 -258 -17 -258C-140.712 -258 -241 -157.712 -241 -34C-241 89.7118 -140.712 190 -17 190Z" fill="#FCD116"/>
<circle cx="147.5" cy="88.5" r="11" stroke="#D7DDEC" stroke-width="5"/>
<circle cx="23.5" cy="226.5" r="8" stroke="#1AD285" stroke-width="5"/>
</svg>
