<svg width="313" height="310" viewBox="0 0 313 310" fill="none" xmlns="http://www.w3.org/2000/svg">
<path d="M212.706 6.59052C189.353 1.38054 165.073 -1.11621 141.333 0.475381C120.291 1.88639 96.4392 5.73696 79.507 19.5297C71.438 26.1036 61.8155 37.911 59.1752 48.3343C59.1752 48.3343 45.2816 103.182 17.4954 114.933C-10.2908 126.685 -29.5874 327.269 181.127 307.68C181.127 307.68 304.889 302.548 312.341 154.7C314.141 118.985 313.135 79.7209 291.57 49.8575C275.045 26.9762 251.891 16.7974 225.281 9.67726C221.127 8.5646 216.936 7.53568 212.706 6.59052Z" fill="#F4F7FA"/>
<path d="M108.28 245.052C109.032 249.39 109.161 253.042 109.697 257.316C125.431 247.486 142.4 240.893 158.37 230.957C137.746 218.204 123.325 215.529 116.758 188.191C113.675 175.362 111.36 149.173 100.919 140.721C89.0297 131.091 81.8513 139.092 78.1588 126.673C72.3813 107.262 53.972 93.442 34.2526 113.576C14.7911 133.447 50.1797 196.379 72.9029 206.432C90.5226 218.86 104.361 222.394 108.28 245.052Z" fill="url(#paint0_linear_505_335)"/>
<g style="mix-blend-mode:soft-light" opacity="0.7">
<path d="M133.845 241.745C129.424 236.521 124.535 231.581 119.815 226.803L118.021 224.99C114.228 221.146 110.905 217.639 107.972 214.546C106.322 212.805 104.763 211.161 103.24 209.578C98.6107 204.774 95.3535 201.411 93.717 199.722C93.1562 199.139 92.7793 198.754 92.6122 198.58C79.8435 185.319 67.3755 162.601 60.6692 150.394C59.9435 149.073 59.2952 147.892 58.7322 146.88C49.0558 129.495 36.9063 112.565 22.6156 96.5589L22.8601 96.3346C37.1632 112.358 49.3307 129.311 59.0148 146.714C59.5756 147.723 60.2273 148.909 60.953 150.23C67.6469 162.423 80.106 185.113 92.8444 198.348C93.0115 198.522 93.3839 198.909 93.9492 199.489C95.5845 201.179 98.8429 204.542 103.471 209.346C104.996 210.928 106.555 212.574 108.206 214.316C111.137 217.408 114.459 220.913 118.25 224.756L120.045 226.568C124.774 231.35 129.663 236.295 134.092 241.529L133.845 241.745Z" fill="#FCFDFE"/>
<path d="M110.046 217.417C102.027 208.255 96.299 194.26 93.4803 176.948C91.1327 162.526 90.9421 146.26 92.9565 132.32L93.2818 132.367C91.2718 146.275 91.4625 162.504 93.8045 176.896C96.6085 194.148 102.314 208.085 110.292 217.202L110.046 217.417Z" fill="#FCFDFE"/>
<path d="M61.7337 152.365C59.1281 142.158 57.7956 131.571 56.508 121.328C55.6264 114.316 54.7134 107.065 53.4011 99.9981L53.7241 99.9375C55.0386 107.015 55.9517 114.27 56.8333 121.287C58.1209 131.52 59.4511 142.102 62.0522 152.284L61.7337 152.365Z" fill="#FCFDFE"/>
<path d="M79.2951 181.652C67.8679 172.483 48.4098 165.388 37.6534 166.47L37.6197 166.144C48.4457 165.054 68.0159 172.182 79.5003 181.398L79.2951 181.652Z" fill="#FCFDFE"/>
</g>
<path d="M72.72 205.146C85.602 223.708 95.4555 214.275 108.562 202.784C114.191 223.059 120.419 242.594 126.807 262.397C117.922 269.958 111.416 275.208 100.64 266.016C88.4509 255.619 81.7626 249.215 64.4895 252.806C47.2164 256.396 30.1586 249.912 28.871 232.32C27.516 213.813 4.56182 198.844 12.9999 181.301C27.7045 150.73 59.3076 185.815 72.72 205.146Z" fill="url(#paint1_linear_505_335)"/>
<g style="mix-blend-mode:soft-light" opacity="0.7">
<path d="M114.925 238.571C95.8986 237.703 80.069 236.451 64.0173 229.049C48.6577 221.966 38.2198 211.706 29.1267 194.739C24.4158 185.942 20.0415 180.172 13.9028 172.374L14.1607 172.171C20.3062 179.982 24.6873 185.763 29.4149 194.584C38.4744 211.482 48.864 221.7 64.1541 228.751C80.1508 236.128 95.949 237.376 114.938 238.243L114.925 238.571Z" fill="#FCFDFE"/>
<path d="M105.845 272.409L105.53 272.32C107.253 266.294 109.617 260.982 112.756 256.078C114.362 253.571 116.233 251.532 118.554 249.245L118.785 249.479C116.482 251.751 114.622 253.774 113.033 256.256C109.911 261.131 107.56 266.415 105.845 272.409Z" fill="#FCFDFE"/>
<path d="M30.7766 246.92L30.5859 246.654C44.1723 236.941 59.6149 231.971 74.0615 232.658L74.0458 232.986C59.6654 232.303 44.3035 237.252 30.7766 246.92Z" fill="#FCFDFE"/>
<path d="M40.7748 212.001C39.9246 210.531 36.4128 196.717 33.4091 184.279C30.3941 171.791 27.3119 158.309 27.3736 157.36L27.7011 157.382C27.6484 158.188 30.3526 170.219 33.7287 184.2C36.7269 196.615 40.2263 210.394 41.0586 211.835L40.7748 212.001Z" fill="#FCFDFE"/>
</g>
<path d="M254.364 175.702C254.364 197.386 247.553 217.499 236.007 234.055C235.961 234.124 235.799 234.189 235.799 234.257C217.682 260.802 186.639 278.001 151.814 278.001C148.966 278.001 146.239 277.867 143.449 277.482C143.438 277.482 143.432 277.651 143.421 277.651C142.047 277.539 140.685 277.485 139.329 277.314C138.847 277.257 138.365 277.238 137.886 277.17C137.461 277.114 137.038 277.076 136.615 277.011C136.246 276.957 135.88 276.911 135.517 276.851C135.435 276.837 135.352 276.828 135.27 276.816C134.373 276.67 133.486 276.516 132.597 276.345H132.584C85.2374 267.301 49.463 225.678 49.463 175.696C49.463 165.129 50.9985 154.933 53.9719 145.341C54.4374 143.838 55.0162 142.351 55.402 140.879C56.5584 138.425 57.3335 136.017 58.3979 133.654C58.8252 132.709 59.2952 131.77 59.7506 130.839C62.2396 125.747 65.1472 120.87 68.4432 116.258C68.7405 115.841 69.05 115.427 69.3529 115.012C70.5672 113.361 71.8321 111.749 73.1474 110.176C75.1132 107.816 77.1811 105.547 79.3511 103.37C85.0096 97.6904 91.3121 92.6918 98.1306 88.4754C100.244 87.1676 102.409 85.9364 104.625 84.7818C119.233 77.1645 135.469 73.2005 151.943 73.229C176.338 73.229 198.741 81.7534 216.336 95.9813C229.279 106.45 239.804 120.001 246.426 135.522C247.907 138.989 248.907 142.553 250.449 146.201C250.449 146.218 250.272 146.229 250.278 146.247C253.073 155.577 254.364 165.464 254.364 175.702Z" fill="url(#paint2_linear_505_335)"/>
<path d="M174.265 210.251C172.066 213.349 165.263 217.326 169.879 225.14C174.454 232.933 169.561 234.393 166.412 233.664C163.264 232.935 153.416 232.542 155.056 237.009C156.696 241.475 159.506 243.16 155.904 244.887C152.301 246.614 150.78 251.097 147.095 257.279C143.436 263.472 134.737 258.117 137.314 264.324C139.89 270.531 141.889 269.932 141.648 274.258C141.592 275.447 142.38 276.667 143.442 277.827C142.069 277.715 140.691 277.575 139.323 277.408C138.84 277.35 138.358 277.289 137.879 277.22C137.454 277.163 137.031 277.108 136.608 277.039C136.24 276.985 135.874 276.928 135.51 276.868C135.428 276.855 135.45 276.84 135.367 276.829C134.487 276.681 134.031 276.523 132.874 276.354C132.104 275.622 132.587 274.828 132.703 273.971C133.852 265.983 122.832 260.493 120.983 254.895C119.167 249.313 120.959 245.982 120.534 241.355C120.109 236.728 121.613 230.611 118.955 226.719C116.297 222.827 105.582 221.541 103.541 213.715C101.488 205.905 106.265 194.207 108.12 192.216C109.953 190.224 99.2466 181.163 94.1522 180.873C89.0342 180.561 91.0812 170.258 82.4289 171.826C73.7587 173.347 58.1837 168.511 61.4005 163.302C64.0565 159.015 68.5128 149.559 53.963 145.343C54.4273 143.84 55.0039 142.353 55.3897 140.881C56.5461 138.427 57.3211 136.019 58.3856 133.656C58.8129 132.711 59.2829 131.773 59.7383 130.842C62.2298 125.75 65.1373 120.873 68.4309 116.26C68.7281 115.843 69.0377 115.429 69.3406 115.014C70.5586 113.363 71.8235 111.751 73.135 110.178C75.1009 107.818 77.1688 105.549 79.3388 103.372C84.9972 97.6927 91.2998 92.6941 98.1183 88.4776C101.001 90.4965 104.287 91.7438 107.134 90.2083C114.105 86.3072 109.51 85.7094 106.655 85.5647C105.91 85.5163 105.198 85.2425 104.613 84.7796C110.011 81.9603 115.653 79.6329 121.47 77.8255C121.035 81.7601 115.689 88.0806 119.623 87.3089C124.202 86.4385 126.072 74.0658 129.433 78.1765C132.844 82.3053 125.703 87.7104 132.409 84.5799C139.124 81.4764 140.021 74.548 147.505 77.9186C155.02 81.3317 154.339 85.3718 156.439 84.9714C158.538 84.571 165.293 89.1214 161.202 92.8609C157.073 96.6117 153.289 91.8347 147.102 90.3934C140.915 88.9521 141.062 94.0331 138.214 95.1906C135.317 96.3122 121.345 89.5555 117.913 95.6583C114.446 101.715 112.971 105.937 118.117 105.781C123.263 105.625 123.589 104.305 123.187 108.107C122.784 111.91 123.712 114.76 128.37 111.182C133.028 107.604 131.974 104.127 135.604 105.829C139.235 107.532 139.667 105.991 143.531 103.184C147.395 100.378 152.473 100.086 153.804 106.382C155.135 112.678 152.858 114.093 146.065 114.411C139.271 114.728 138.502 112.598 136.337 118.277C134.172 123.956 125.197 131.257 117.307 134.264C109.418 137.271 106.344 141.728 106.526 147.733C106.708 153.739 103.751 160.097 101.775 155.136C99.7985 150.175 94.2228 141.789 88.5395 147.386C82.8562 152.983 72.9489 162.909 83.8893 164.722C94.8117 166.569 89.1127 156.335 94.6334 158.381C100.154 160.427 91.1406 164.952 94.8263 166.58C98.512 168.209 100.063 167.454 100.035 172.483C100.007 177.513 101.258 182.393 105.738 180.26C110.217 178.126 115.965 168.279 122.441 174.11C128.917 179.94 128.466 179.193 131.863 177.491C135.259 175.79 137.426 180.887 138.817 183.212C140.208 185.537 145.673 183.164 150.103 190.068C154.532 196.973 156.264 198.206 161.311 195.72C166.358 193.235 168.414 195.082 169.731 198.568C171.048 202.054 174.15 198.648 175.649 203.255C177.147 207.863 176.446 207.15 174.265 210.251Z" fill="url(#paint3_linear_505_335)"/>
<path d="M191.548 126.592C187.97 118.915 205.695 119.778 208.827 120.368C211.98 120.893 219.37 115.113 220.311 112.427C221.276 109.72 222.858 111.006 228.468 110.929C234.076 110.87 229.12 109.601 222.949 107.564C216.778 105.528 222.052 105.332 216.38 100.85C213.937 98.8864 214.705 97.2185 216.334 95.9791C229.379 106.522 239.646 120.097 246.239 135.52C246.068 135.466 245.89 135.436 245.71 135.429C241.785 135.407 240.919 126.725 238.897 125.035C236.902 123.353 238.953 129.804 239.441 132.457C239.928 135.11 238.366 132.88 236.412 135.316C234.458 137.752 230.896 137.801 230.58 134.142C230.263 130.482 227.68 126.905 222.457 125.237C217.233 123.569 212.715 124.939 208.471 126.575C204.243 128.187 195.151 134.209 191.548 126.592Z" fill="url(#paint4_linear_505_335)"/>
<path d="M236.048 234.257C236.402 231.621 236.981 228.898 235.88 227.902C233.205 225.42 232.621 218.656 233.549 215.228C234.476 211.799 241.682 211.987 236.791 206.283C231.886 200.562 227.466 193.768 229.525 189.885C231.585 186.002 230.961 185.723 227.1 185.745C223.24 185.768 221.539 185.938 217.69 182.501C213.837 179.017 208.537 190.722 194.038 181.334C179.541 171.853 187.797 155.873 193.229 155.833C198.696 155.742 205.083 152.981 200.603 146.314C196.138 139.623 203.117 138.677 206.526 140.198C209.936 141.719 216 137.662 222.172 135.841C228.344 134.019 228.087 144.108 231.523 146.125C234.979 148.144 241.453 146.542 244.817 143.313C247.22 141.01 247.745 143.697 250.12 146.247C252.979 155.803 254.427 165.726 254.418 175.7C254.418 197.473 247.628 217.662 236.048 234.257Z" fill="url(#paint5_linear_505_335)"/>
<path d="M210.114 113.814C210.114 113.814 214.635 111.768 212.997 108.483C211.359 105.198 208.802 95.1244 206.921 98.2986C205.04 101.473 207.818 107.678 207.209 110.348C206.6 113.019 206.579 114.43 210.114 113.814Z" fill="url(#paint6_linear_505_335)"/>
<path d="M205.609 110.74C205.545 109.681 206.212 105.381 202.828 105.515C202.834 105.508 197.933 107.553 200.8 111.028C203.667 114.503 205.676 111.795 205.609 110.74Z" fill="url(#paint7_linear_505_335)"/>
<path style="mix-blend-mode:multiply" opacity="0.2" d="M254.091 175.481C254.091 197.165 247.418 217.279 235.872 233.835C235.827 233.893 235.802 233.963 235.799 234.036V234.036C217.292 260.582 186.502 277.699 151.676 277.699C148.832 277.692 145.992 277.491 143.175 277.097V277.097C143.164 277.097 143.159 277.35 143.147 277.35C141.774 277.238 140.413 277.222 139.057 277.055C138.574 276.998 138.092 277 137.612 276.932C137.187 276.876 136.764 276.848 136.341 276.783C135.972 276.729 135.607 276.69 135.243 276.63C135.161 276.616 135.078 276.609 134.996 276.598C134.099 276.45 133.212 276.297 132.325 276.128H132.31C88.5272 267.764 54.6427 231.516 49.7883 186.587C60.0557 216.037 85.4438 238.165 116.655 244.333H116.667C117.433 244.719 118.202 244.64 118.974 244.768C119.045 244.777 119.119 244.802 119.189 244.813C119.501 244.863 119.818 244.916 120.137 244.961C120.499 245.018 120.866 245.064 121.234 245.112C121.649 245.172 122.063 245.208 122.48 245.256C123.651 245.401 124.827 245.668 126.012 245.764C126.023 245.764 126.029 245.876 126.038 245.876C128.446 245.876 130.846 246.069 133.306 246.069C148.343 246.069 162.512 242.247 174.911 235.651C187.278 229.056 197.894 219.605 205.876 208.084C205.876 208.024 205.972 207.945 206.009 207.884C213.593 196.964 218.619 184.474 220.713 171.345C222.806 158.215 221.914 144.782 218.101 132.044C218.101 132.029 218.067 132.013 218.067 131.999C217.295 128.851 216.053 125.772 214.777 122.779C209.85 111.231 202.525 100.861 193.288 92.3568C184.052 83.8525 173.113 77.408 161.198 73.45C181.29 75.2958 200.383 83.061 216.06 95.7626C229.003 106.231 239.472 119.783 246.093 135.305C247.573 138.772 248.518 142.334 250.06 145.983C250.06 145.999 249.94 146.011 249.948 146.027C252.744 155.356 254.091 165.243 254.091 175.481Z" fill="url(#paint8_linear_505_335)"/>
<g style="mix-blend-mode:multiply" opacity="0.9">
<path d="M86.5767 130.532C86.5767 130.532 58.1859 109.302 81.4778 80.7798C81.4778 80.7798 105.338 61.5573 107.114 40.9899C115.376 50.055 110.659 68.4789 110.659 68.4789C110.659 68.4789 134.396 59.1548 132.358 39.0787C130.318 18.9779 160.946 4.99227 165.521 6.04885C158.942 18.8254 153.488 41.5014 168.661 47.6794C183.691 53.8012 196.711 65.9463 197.228 73.8224C202.773 61.6269 194.639 43.6269 207.914 37.9514C207.914 37.9514 201.387 61.6526 219.018 68.8939C236.455 76.0566 251.194 106.179 227.964 127.923C204.384 149.988 99.3902 148.865 86.5767 130.532Z" fill="url(#paint9_linear_505_335)"/>
<path d="M207.911 68.9971C208.936 93.7403 187.65 95.5237 187.65 95.5237C192.165 81.1758 184.398 65.9295 165.666 61.5248C146.717 57.0697 148.345 28.2213 148.345 28.2213C141.739 33.493 142.814 37.0822 143.073 56.3294C143.332 75.5766 96.576 100.209 96.576 100.209C96.576 100.209 98.3605 83.0871 95.6787 78.273C57.9257 123.946 98.9595 137.894 98.9595 137.894C120.992 156.666 185.232 148.23 213.185 131.964C240.668 115.977 218.732 87.1777 207.911 68.9971Z" fill="url(#paint10_linear_505_335)"/>
<path d="M177.268 22.298C164.751 36.8489 184.081 46.7002 184.479 46.3985C192.782 40.0972 182.503 32.6944 177.268 22.298Z" fill="url(#paint11_linear_505_335)"/>
</g>
<path d="M88.4431 240.72L89.3303 95.2445C89.3362 94.2692 89.2457 93.2957 89.06 92.3383C90.4531 93.0287 91.8805 93.6475 93.3368 94.1924C89.9573 84.0674 79.1403 81.9139 79.1369 81.9127C77.9491 81.5942 76.6929 81.6671 75.3873 81.6671H71.0488C67.1096 81.6671 63.5081 82.9009 60.8195 85.3236C60.6367 85.4874 60.4584 85.5334 60.2845 85.705C59.7636 86.1994 59.2814 86.733 58.8421 87.3011C58.6963 87.4973 58.5549 87.6656 58.4192 87.8675C58.1481 88.2656 57.8977 88.6774 57.6689 89.1013C56.6118 91.0821 56.0568 93.292 56.0526 95.5372L55.7811 244.324C47.4048 250.429 41.8325 260.014 41.8325 270.246C41.8325 273.998 42.5874 277.1 43.9412 280.565H43.9322C43.9322 280.565 51.1668 301.448 75.6363 299.162C73.679 297.937 71.8093 296.792 70.0281 295.694C70.7998 295.649 71.5771 295.591 72.3622 295.488C74.181 295.251 75.9764 294.86 77.7292 294.32C91.5018 290.119 101.9 277.26 102.009 263.407C102.082 253.303 96.6882 244.964 88.4431 240.72Z" fill="url(#paint12_linear_505_335)"/>
<path d="M106.722 266.948C106.61 280.802 96.216 293.662 82.4435 297.863C80.6907 298.404 78.8953 298.796 77.0765 299.035C60.3832 301.232 46.5501 289.962 46.5501 273.807C46.5501 263.576 52.1224 253.961 60.4987 247.856L60.7702 99.0703C60.7769 94.9584 62.6119 91.2548 65.5371 88.6324C68.348 86.1153 71.9933 84.7315 75.7664 84.7493H80.1037C87.9989 84.7493 94.095 90.9183 94.0467 98.7989L93.1606 244.264C101.409 248.506 106.803 256.842 106.722 266.948Z" fill="white"/>
<path d="M99.8478 267.733C99.7648 279.709 89.6623 290.674 77.1034 292.275C64.3482 293.901 53.8755 285.281 53.8856 272.971C53.8934 263.91 59.5925 255.494 67.7232 251.156C70.6864 249.564 73.9325 248.568 77.2784 248.224C80.2514 247.906 83.2581 248.184 86.1224 249.041C94.2778 251.525 99.9118 258.7 99.8478 267.733Z" fill="url(#paint13_linear_505_335)"/>
<path d="M86.902 98.8246L86.1 253.937L67.7131 255.859L68.1471 98.9928C68.1584 95.0671 71.7364 91.6865 75.7395 91.6697L80.0735 91.6506C84.0362 91.6293 86.9222 94.9426 86.902 98.8246Z" fill="url(#paint14_linear_505_335)"/>
<path d="M99.8478 267.734C99.7648 279.709 89.6623 290.674 77.1034 292.275C64.3482 293.901 53.8755 285.281 53.8856 272.972C53.8934 263.91 59.5925 255.631 67.7232 251.291L68.0776 123.706L86.7741 123.257L86.1224 249.173C94.2778 251.658 99.9118 258.7 99.8478 267.734Z" fill="url(#paint15_linear_505_335)"/>
<path d="M91.6689 99.3765C91.6689 100.107 91.0632 100.785 90.3229 100.793L81.6438 100.879C80.8956 100.886 80.2911 100.215 80.2978 99.4797V99.2553C80.2978 98.5196 80.9102 97.9946 81.6595 97.989L90.342 97.9172C91.0823 97.9172 91.6779 98.4231 91.6734 99.151L91.6689 99.3765Z" fill="url(#paint16_linear_505_335)"/>
<path d="M91.6151 108.66C91.6066 109.012 91.461 109.346 91.2095 109.591C90.958 109.836 90.6205 109.974 90.2691 109.974L81.6 110.109C80.853 110.122 80.2484 109.562 80.254 108.829V108.553C80.2611 108.197 80.4077 107.858 80.6622 107.609C80.9167 107.361 81.2588 107.222 81.6146 107.223L90.287 107.103C90.4594 107.097 90.6312 107.125 90.7923 107.187C90.9534 107.248 91.1004 107.342 91.2245 107.462C91.3486 107.581 91.4473 107.725 91.5146 107.884C91.5819 108.042 91.6164 108.213 91.6162 108.385L91.6151 108.66Z" fill="url(#paint17_linear_505_335)"/>
<path d="M91.5612 117.937C91.5612 118.664 90.9555 119.145 90.2152 119.161L81.5563 119.342C80.8104 119.358 80.2103 118.893 80.2103 118.167V117.841C80.2158 117.48 80.3599 117.135 80.6127 116.877C80.8655 116.619 81.2077 116.468 81.5686 116.456L90.231 116.286C90.4055 116.284 90.5786 116.317 90.7403 116.383C90.902 116.448 91.049 116.545 91.1727 116.669C91.2963 116.792 91.3942 116.938 91.4605 117.1C91.5269 117.261 91.5603 117.434 91.559 117.609L91.5612 117.937Z" fill="url(#paint18_linear_505_335)"/>
<path d="M91.5062 127.489C91.5062 128.215 90.9017 128.902 90.1603 128.923L81.5114 129.159C80.7666 129.179 80.1654 128.52 80.1654 127.79V127.565C80.1654 126.835 80.7756 126.293 81.5215 126.274L90.1737 126.05C90.9107 126.031 91.5051 126.538 91.5006 127.263L91.5062 127.489Z" fill="url(#paint19_linear_505_335)"/>
<path d="M91.4524 136.745C91.445 137.1 91.3023 137.439 91.0534 137.693C90.8045 137.946 90.4683 138.095 90.1132 138.11L81.4766 138.396C81.3027 138.404 81.1289 138.377 80.9658 138.316C80.8028 138.255 80.6538 138.161 80.5279 138.041C80.402 137.921 80.3019 137.776 80.2336 137.616C80.1653 137.456 80.1303 137.283 80.1307 137.109V136.839C80.1399 136.484 80.2863 136.147 80.5389 135.898C80.7916 135.649 81.1309 135.508 81.4856 135.504L90.1222 135.234C90.8591 135.211 91.4513 135.752 91.4479 136.475L91.4524 136.745Z" fill="url(#paint20_linear_505_335)"/>
<path d="M91.3986 145.989C91.3986 146.711 90.7962 147.27 90.0605 147.298L81.4318 147.635C80.6881 147.664 80.0858 147.147 80.0858 146.42V146.122C80.0936 145.762 80.2387 145.42 80.4913 145.164C80.7439 144.908 81.0848 144.759 81.4441 144.747L90.0807 144.427C90.2518 144.418 90.423 144.445 90.5836 144.504C90.7443 144.564 90.8911 144.656 91.015 144.774C91.1389 144.893 91.2373 145.035 91.3042 145.193C91.3712 145.351 91.4052 145.521 91.4042 145.692L91.3986 145.989Z" fill="url(#paint21_linear_505_335)"/>
<path d="M91.3447 155.222C91.3447 155.943 90.7424 156.456 90.0089 156.488L81.3903 156.87C80.6466 156.903 80.0443 156.441 80.0443 155.716V155.388C80.0526 155.028 80.1961 154.683 80.4464 154.423C80.6966 154.162 81.0355 154.005 81.3959 153.983L90.0178 153.615C90.1901 153.608 90.3619 153.636 90.5229 153.698C90.6839 153.759 90.8308 153.853 90.9545 153.973C91.0782 154.093 91.1762 154.237 91.2425 154.396C91.3088 154.555 91.3421 154.726 91.3402 154.898L91.3447 155.222Z" fill="url(#paint22_linear_505_335)"/>
<path d="M91.292 164.445C91.292 165.164 90.6897 165.64 89.9562 165.678L81.3476 166.109C80.6062 166.146 80.0017 165.727 80.0095 165.003V164.656C80.0095 163.932 80.6174 163.259 81.3555 163.223L89.9674 162.807C90.1401 162.801 90.3122 162.831 90.4733 162.893C90.6344 162.956 90.7811 163.051 90.9045 163.172C91.0279 163.293 91.1255 163.438 91.1913 163.597C91.2572 163.757 91.2899 163.929 91.2875 164.101L91.292 164.445Z" fill="url(#paint23_linear_505_335)"/>
<path d="M91.2382 173.944C91.2382 174.66 90.637 175.402 89.9046 175.441L81.3061 175.925C80.5647 175.966 79.9602 175.289 79.9691 174.566V174.342C79.9691 173.621 80.5771 173.073 81.3151 173.033L89.9158 172.565C90.6493 172.525 91.2393 173.004 91.2348 173.721L91.2382 173.944Z" fill="url(#paint24_linear_505_335)"/>
<path d="M91.1843 183.144C91.1843 183.86 90.5843 184.587 89.853 184.632L81.2646 185.163C80.5244 185.209 79.9265 184.551 79.9288 183.831V183.601C79.9288 182.881 80.5356 182.32 81.2747 182.276L89.8664 181.76C90.5989 181.715 91.1877 182.201 91.1843 182.916V183.144Z" fill="url(#paint25_linear_505_335)"/>
<path d="M91.1316 192.335C91.1316 193.048 90.5316 193.774 89.8014 193.823L81.2231 194.402C80.4829 194.453 79.8861 193.802 79.8895 193.084V192.85C79.8895 192.132 80.4952 191.563 81.2355 191.515L89.8171 190.954C90.5484 190.906 91.1372 191.392 91.1327 192.105L91.1316 192.335Z" fill="url(#paint26_linear_505_335)"/>
<path d="M91.0778 201.514C91.0778 202.227 90.48 202.961 89.7498 203.015L81.1816 203.642C80.4425 203.697 79.8458 203.043 79.8491 202.328V202.093C79.8491 201.377 80.4537 200.808 81.1951 200.755L89.7666 200.143C90.4968 200.091 91.0856 200.571 91.0812 201.282L91.0778 201.514Z" fill="url(#paint27_linear_505_335)"/>
<path d="M91.0251 210.684C91.0251 211.394 90.4273 212.15 89.6982 212.208L81.1402 212.881C80.4021 212.939 79.8065 212.271 79.8088 211.556V211.332C79.8088 210.618 80.4133 210.052 81.1547 209.995L89.7161 209.336C90.4463 209.278 91.0329 209.748 91.0296 210.457L91.0251 210.684Z" fill="url(#paint28_linear_505_335)"/>
<path d="M90.978 219.556C90.978 220.264 90.3813 220.765 89.6522 220.827L81.1042 221.547C80.3673 221.609 79.7717 221.204 79.7751 220.491V220.133C79.7751 219.419 80.3785 218.719 81.1211 218.659L89.6724 217.954C89.8421 217.942 90.0125 217.966 90.1727 218.023C90.3328 218.081 90.4793 218.171 90.6027 218.288C90.7261 218.405 90.8239 218.547 90.8896 218.703C90.9554 218.86 90.9878 219.029 90.9847 219.199L90.978 219.556Z" fill="url(#paint29_linear_505_335)"/>
<path d="M90.9196 228.701C90.9196 229.407 90.3229 229.951 89.595 230.017L81.0571 230.785C80.3213 230.851 79.7269 230.409 79.7291 229.698V229.361C79.7415 228.999 79.8832 228.652 80.1286 228.385C80.374 228.117 80.7069 227.947 81.0672 227.903L89.6096 227.151C89.7774 227.135 89.9465 227.155 90.106 227.21C90.2655 227.264 90.4119 227.351 90.5356 227.466C90.6593 227.58 90.7576 227.719 90.8241 227.874C90.8907 228.029 90.924 228.196 90.9219 228.364L90.9196 228.701Z" fill="url(#paint30_linear_505_335)"/>
<path d="M90.8658 237.841C90.8658 238.546 90.2702 239.145 89.5434 239.215L81.019 240.03C80.2843 240.1 79.6898 239.611 79.6932 238.901V238.583C79.7068 238.223 79.8493 237.879 80.0949 237.614C80.3404 237.35 80.6727 237.182 81.0313 237.142L89.5625 236.341C89.7284 236.322 89.8964 236.339 90.0553 236.39C90.2143 236.441 90.3605 236.526 90.4843 236.638C90.6082 236.75 90.7067 236.887 90.7735 237.04C90.8402 237.193 90.8736 237.359 90.8714 237.526L90.8658 237.841Z" fill="url(#paint31_linear_505_335)"/>
<g style="mix-blend-mode:soft-light" opacity="0.5">
<path d="M79.7134 267.64C79.6899 272.957 75.173 277.793 69.5907 278.455C63.9691 279.12 59.3917 275.307 59.4007 269.925C59.4096 264.543 64.0139 259.672 69.649 259.071C75.246 258.475 79.7358 262.316 79.7134 267.64Z" fill="white"/>
</g>
<g style="mix-blend-mode:soft-light" opacity="0.3">
<path d="M82.4435 297.865C80.6907 298.406 78.8953 298.798 77.0765 299.037C60.3832 301.234 46.5501 289.964 46.5501 273.809C46.5501 263.578 52.1224 253.963 60.4987 247.858L60.7702 99.0726C60.7769 94.9607 62.6119 91.238 65.5371 88.6156C67.2532 89.5993 69.0814 91.2066 70.6136 93.82C72.7896 97.5213 74.3688 103.254 74.2028 112.126C74.1512 114.939 74.1927 118.744 74.1523 123.296C73.8035 160.573 73.9078 246.9 73.9078 248.87V248.904C73.9078 248.904 72.2804 251.382 70.7504 255.409C70.3287 256.531 69.8531 257.764 69.4673 259.11C67.897 264.48 66.8651 271.411 68.57 278.535C69.6916 283.23 71.9887 287.985 76.0849 292.39C78.0027 294.437 80.1344 296.273 82.4435 297.865V297.865Z" fill="white"/>
</g>
<path d="M227.879 98.1483V130.354C227.879 135.012 231.773 138.776 236.602 138.755L254.534 138.682L256.902 138.674L265.269 148.928C265.904 149.421 267.424 149.443 267.936 148.825L269.177 147.186L275.669 138.597H276.269L292.668 138.533C294.431 138.524 295.941 137.886 297.205 136.817C298.878 135.411 299.843 133.261 299.843 130.855V101.64C299.843 97.4159 296.66 93.7964 292.563 93.5541L289.086 93.3455L236.511 90.2318C235.275 90.1539 234.037 90.3488 232.885 90.8028C229.891 91.9737 227.879 94.7632 227.879 98.1483Z" fill="url(#paint32_linear_505_335)"/>
<path d="M229.156 97.3183V129.436C229.156 134.082 233.178 137.838 237.977 137.826L254.937 137.791L258.275 137.783L266.601 147.56C266.74 147.725 266.913 147.859 267.11 147.95C267.306 148.041 267.52 148.088 267.736 148.087C267.952 148.087 268.166 148.038 268.362 147.946C268.557 147.853 268.73 147.719 268.868 147.552L269.173 147.189L276.268 138.597L276.975 137.741L293.885 137.702C295.063 137.699 296.222 137.394 297.249 136.817C299.591 135.539 301.118 132.988 301.118 130.054V100.916C301.118 96.7002 297.904 93.0852 293.827 92.8407L289.837 92.5973L238.046 89.4422C236.091 89.3233 234.201 89.8381 232.741 90.8049C230.621 92.2036 229.156 94.5669 229.156 97.3183Z" fill="url(#paint33_linear_505_335)"/>
<path d="M269.542 120.591L266.637 120.521C265.828 120.502 265.157 119.809 265.116 118.995L264.046 98.5285C264.034 98.3327 264.065 98.1366 264.137 97.9543C264.21 97.7721 264.322 97.6081 264.465 97.4742C264.755 97.1893 265.156 97.0973 265.575 97.1265L270.577 97.4753C270.781 97.4797 270.982 97.5248 271.168 97.6081C271.354 97.6913 271.521 97.8109 271.661 97.9599C271.799 98.1107 271.906 98.2875 271.976 98.4801C272.045 98.6726 272.076 98.877 272.067 99.0815L271.032 119.174C271.016 119.558 270.851 119.919 270.573 120.184C270.295 120.448 269.925 120.594 269.542 120.591Z" fill="white"/>
<path d="M265.055 125.59C265.78 124.897 266.799 124.561 268.113 124.581C269.466 124.602 270.492 124.959 271.193 125.65C271.894 126.341 272.243 127.347 272.243 128.668C272.243 129.945 271.885 130.934 271.17 131.635C270.456 132.335 269.436 132.687 268.113 132.69C266.816 132.69 265.801 132.326 265.067 131.598C264.332 130.869 263.964 129.871 263.963 128.602C263.963 127.289 264.327 126.285 265.055 125.59Z" fill="white"/>
<path style="mix-blend-mode:multiply" opacity="0.3" d="M254.501 138.682L256.885 138.674L265.262 148.928C265.897 149.422 267.421 149.443 267.931 148.825L269.175 147.186L276.269 138.593L292.668 138.529C294.351 138.522 295.977 137.914 297.252 136.813C299.594 135.536 301.12 132.985 301.12 130.051V100.917C301.12 96.7003 297.907 93.0853 293.83 92.8408L289.839 92.5974C289.588 92.8363 289.36 93.0831 289.126 93.3478C286.452 96.2898 284.564 100.628 284.908 107.025C285.927 126.046 273.287 129.121 261.866 132.694C258.328 133.801 256.213 135.699 254.979 137.79C254.801 138.082 254.645 138.38 254.501 138.682Z" fill="url(#paint34_linear_505_335)"/>
<path d="M271.484 171.208L269.848 168.864L266.507 167.488C266.507 167.488 267.846 165.05 270.934 166.868C271.907 167.903 273.26 170.309 274.735 171.446C276.21 172.583 271.484 171.208 271.484 171.208Z" fill="url(#paint35_linear_505_335)"/>
<path d="M283.57 172.942C280.154 169.203 276.074 167.326 273.908 166.487C273.245 166.762 272.226 167.298 271.585 168.335C268.8 172.85 277.584 179.8 275.455 184.246C274.036 187.21 269.573 185.285 263.816 190.206C261.053 192.562 260.801 194.106 261.139 195.254C261.675 197.066 263.807 198.282 264.455 198.657C270.09 201.879 281.786 200.999 286.722 193.856C290.853 187.873 289.17 179.074 283.57 172.942Z" fill="url(#paint36_linear_505_335)"/>
<path d="M279.169 302.52C279.29 301.855 281.437 301.253 282.501 302.144C283.028 302.586 283.392 303.482 283.087 303.887C282.974 304.035 283.431 304.294 282.995 304.299C281.543 304.315 279.049 303.177 279.169 302.52Z" fill="url(#paint37_linear_505_335)"/>
<path d="M281.42 302.762L283.628 302.449C282.605 301.215 282.795 297.29 282.795 297.29L280.446 297.814C280.446 297.814 280.713 298.891 281.169 300.479C281.325 301.028 281.394 301.879 281.42 302.762Z" fill="url(#paint38_linear_505_335)"/>
<path d="M281.224 302.489C281.224 302.489 283.883 301.877 284.17 302.404C284.457 302.931 284.682 304.345 282.995 304.299C281.308 304.253 281.074 302.937 281.224 302.489Z" fill="url(#paint39_linear_505_335)"/>
<path d="M248.864 305.013C249.078 304.372 251.287 304.077 252.216 305.107C252.677 305.619 252.911 306.558 252.552 306.915C252.421 307.046 252.836 307.364 252.403 307.31C250.969 307.124 248.654 305.651 248.864 305.013Z" fill="url(#paint40_linear_505_335)"/>
<path d="M251.06 305.568H253.29C252.449 304.206 253.186 300.347 253.186 300.347L250.787 300.538C250.787 300.538 250.899 301.642 251.129 303.278C251.208 303.838 251.157 304.69 251.06 305.568Z" fill="url(#paint41_linear_505_335)"/>
<path d="M245.279 221.217C243.713 226.395 242.556 231.688 241.82 237.047C239.111 256.755 244.869 257.383 243.794 279.22C243.45 286.191 249.834 302.266 250.396 302.622C250.689 302.652 250.984 302.663 251.278 302.656C252.039 302.629 252.793 302.503 253.522 302.281C254.531 302.107 258.179 292.233 257.335 286.363C256.736 282.213 256.91 277.75 257.257 268.832C257.313 267.386 261.01 240.718 261.01 240.718C262.131 250.588 263.428 258.976 264.549 265.479C268.151 286.372 279.864 299.016 280.477 299.22C280.598 299.268 281.697 299.669 282.595 299.075C282.827 298.928 283.013 298.719 283.132 298.472C283.444 298.226 283.038 277.609 279.466 262.1C274.281 239.582 276.539 234.313 274.895 224.256C273.477 215.555 245.279 221.217 245.279 221.217Z" fill="url(#paint42_linear_505_335)"/>
<path d="M243.891 224.618C247.003 226.221 255.025 229.079 264.581 227.66C268.188 227.117 271.677 225.968 274.9 224.26C272.423 216.754 274.368 212.735 275.287 209.028C276.591 203.75 276.616 204.146 277.693 199.953C279.469 193.033 279.762 185.958 278.541 184.514C275.996 181.497 271.878 180.727 268.712 180.495C267.78 180.426 266.931 180.4 266.226 180.383C264.465 180.328 261.528 179.986 258.496 180.185C255.609 180.383 252.637 181.073 250.513 182.989C250.439 183.054 251.332 183.535 250.89 184.045C249.73 185.419 248.701 186.897 247.815 188.461C246.892 190.103 246.063 192.013 245.225 194.862C244.161 198.503 243.477 202.244 243.185 206.026C242.383 216.496 243.177 221.334 243.891 224.618Z" fill="url(#paint43_linear_505_335)"/>
<path d="M250.904 305.271C250.904 305.271 253.622 305.037 253.833 305.6C254.044 306.163 254.068 307.592 252.403 307.31C250.739 307.029 250.698 305.693 250.904 305.271Z" fill="url(#paint44_linear_505_335)"/>
<path d="M263.963 175.462C264.451 175.171 264.822 175.799 264.592 176.346C264.362 176.894 263.59 177.244 263.122 176.907C262.653 176.571 263.306 175.855 263.963 175.462Z" fill="url(#paint45_linear_505_335)"/>
<path d="M257.913 180.951C257.913 181.898 260.374 182.668 263.415 182.668C266.457 182.668 268.911 181.898 268.911 180.951C268.905 180.778 268.832 180.615 268.707 180.495C267.775 180.426 266.926 180.4 266.222 180.383C264.461 180.328 261.523 179.986 258.492 180.185C258.121 180.416 257.913 180.678 257.913 180.951Z" fill="url(#paint46_linear_505_335)"/>
<path d="M261.937 180.217C262.255 179.5 262.573 178.783 262.892 178.068C262.613 177.794 260.792 176.433 260.829 174.889C260.881 172.795 262.545 171.196 262.871 170.875C264.24 169.529 264.531 169.382 265.033 169.231L265.722 169.051H265.799C266.211 169.033 267.489 169.388 267.729 169.518C268.495 169.944 268.343 173.556 266.644 178.196C266.622 178.386 266.6 178.578 266.575 178.77C266.423 179.97 266.218 181.115 265.977 182.206C265.977 182.2 262.841 182.335 261.937 180.217Z" fill="url(#paint47_linear_505_335)"/>
<path d="M263.661 168.332C263.212 169.797 264.201 170.426 264.474 170.785C264.631 171.012 264.75 171.262 264.826 171.527C264.845 171.591 264.855 171.657 264.857 171.724C264.894 172.745 263.095 173.38 263.252 173.879C263.364 174.241 264.486 174.147 264.523 174.44C264.56 174.717 263.577 174.967 263.614 175.296C263.642 175.547 264.214 175.502 264.432 175.937C264.544 176.155 264.452 176.273 264.464 176.834C264.468 177.132 264.499 177.429 264.557 177.721C264.8 178.731 266.134 179.489 266.516 179.23C266.621 179.157 266.581 179.057 266.758 178.759C266.891 178.551 267.051 178.362 267.235 178.198C267.683 177.798 268.504 177.665 269.386 177.367C271.017 176.815 271.629 176.107 271.825 175.864C271.895 175.777 271.938 175.709 271.976 175.661C272.654 174.69 273.141 173.107 272.956 171.984C272.645 170.103 270.576 170.315 269.573 168.239C269.012 167.082 268.676 165.868 267.33 165.392C266.282 165.022 265.317 165.392 264.692 166.29C264.248 166.915 263.9 167.604 263.661 168.332V168.332Z" fill="#26264F"/>
<path d="M263.883 173.697C264.392 173.314 264.88 173.971 264.688 174.609C264.497 175.247 263.679 175.72 263.118 175.41C262.557 175.099 263.197 174.212 263.883 173.697Z" fill="url(#paint48_linear_505_335)"/>
<path d="M259.2 166.114L261.466 164.717C261.466 164.717 263.566 163.765 265.866 165.278C268.167 166.791 267.181 167.887 267.181 167.887L265.489 167.123C265.489 167.123 264.399 166.623 262.71 167.37C260.763 167.931 259.407 167.795 259.407 167.795L259.2 166.114Z" fill="url(#paint49_linear_505_335)"/>
<path d="M248.605 164.14C253.406 162.524 257.884 162.861 260.185 163.178C260.634 163.739 261.264 164.703 261.321 165.92C261.568 171.218 250.517 173.04 250.223 177.959C250.027 181.24 254.864 181.72 257.513 188.815C258.785 192.221 258.26 193.688 257.409 194.526C256.063 195.851 253.606 195.884 252.859 195.894C246.369 195.982 236.566 189.541 235.711 180.901C234.996 173.67 240.734 166.787 248.605 164.14Z" fill="url(#paint50_linear_505_335)"/>
<defs>
<linearGradient id="paint0_linear_505_335" x1="28.6175" y1="180.505" x2="158.37" y2="180.505" gradientUnits="userSpaceOnUse">
<stop stop-color="#FF9085"/>
<stop offset="1" stop-color="#FB6FBB"/>
</linearGradient>
<linearGradient id="paint1_linear_505_335" x1="196.446" y1="298.692" x2="12.9135" y2="190.184" gradientUnits="userSpaceOnUse">
<stop stop-color="#FFC444"/>
<stop offset="1" stop-color="#F36F56"/>
</linearGradient>
<linearGradient id="paint2_linear_505_335" x1="49.4607" y1="175.616" x2="254.364" y2="175.616" gradientUnits="userSpaceOnUse">
<stop stop-color="#AA80F9"/>
<stop offset="1" stop-color="#6165D7"/>
</linearGradient>
<linearGradient id="paint3_linear_505_335" x1="68.3546" y1="253.086" x2="-3.75396" y2="360.666" gradientUnits="userSpaceOnUse">
<stop stop-color="#E38DDD"/>
<stop offset="1" stop-color="#9571F6"/>
</linearGradient>
<linearGradient id="paint4_linear_505_335" x1="114.888" y1="284.486" x2="42.7141" y2="392.165" gradientUnits="userSpaceOnUse">
<stop stop-color="#E38DDD"/>
<stop offset="1" stop-color="#9571F6"/>
</linearGradient>
<linearGradient id="paint5_linear_505_335" x1="141.141" y1="302.082" x2="68.9659" y2="409.761" gradientUnits="userSpaceOnUse">
<stop stop-color="#E38DDD"/>
<stop offset="1" stop-color="#9571F6"/>
</linearGradient>
<linearGradient id="paint6_linear_505_335" x1="97.389" y1="272.756" x2="25.2143" y2="380.436" gradientUnits="userSpaceOnUse">
<stop stop-color="#E38DDD"/>
<stop offset="1" stop-color="#9571F6"/>
</linearGradient>
<linearGradient id="paint7_linear_505_335" x1="94.6724" y1="270.936" x2="22.4976" y2="378.616" gradientUnits="userSpaceOnUse">
<stop stop-color="#E38DDD"/>
<stop offset="1" stop-color="#9571F6"/>
</linearGradient>
<linearGradient id="paint8_linear_505_335" x1="49.7871" y1="175.575" x2="254.091" y2="175.575" gradientUnits="userSpaceOnUse">
<stop stop-color="#AA80F9"/>
<stop offset="1" stop-color="#6165D7"/>
</linearGradient>
<linearGradient id="paint9_linear_505_335" x1="146.924" y1="233.583" x2="157.776" y2="79.2555" gradientUnits="userSpaceOnUse">
<stop stop-color="#FFC444"/>
<stop offset="0.31" stop-color="#FBA94A"/>
<stop offset="1" stop-color="#F36F56"/>
</linearGradient>
<linearGradient id="paint10_linear_505_335" x1="153.511" y1="80.246" x2="151.705" y2="218.659" gradientUnits="userSpaceOnUse">
<stop stop-color="#FFC444"/>
<stop offset="0.31" stop-color="#FBA94A"/>
<stop offset="1" stop-color="#F36F56"/>
</linearGradient>
<linearGradient id="paint11_linear_505_335" x1="185.491" y1="27.8097" x2="176.369" y2="41.4184" gradientUnits="userSpaceOnUse">
<stop stop-color="#FFC444"/>
<stop offset="0.31" stop-color="#FBA94A"/>
<stop offset="1" stop-color="#F36F56"/>
</linearGradient>
<linearGradient id="paint12_linear_505_335" x1="41.8325" y1="190.5" x2="102.007" y2="190.5" gradientUnits="userSpaceOnUse">
<stop stop-color="#EBEFF2"/>
<stop offset="0.99" stop-color="#B7C0CE"/>
</linearGradient>
<linearGradient id="paint13_linear_505_335" x1="53.8878" y1="270.287" x2="99.849" y2="270.287" gradientUnits="userSpaceOnUse">
<stop stop-color="#FF9085"/>
<stop offset="1" stop-color="#FB6FBB"/>
</linearGradient>
<linearGradient id="paint14_linear_505_335" x1="83.8713" y1="66.4442" x2="74.4844" y2="219.365" gradientUnits="userSpaceOnUse">
<stop stop-color="#EBEFF2"/>
<stop offset="0.47" stop-color="#D2D9E1"/>
<stop offset="0.99" stop-color="#B7C0CE"/>
</linearGradient>
<linearGradient id="paint15_linear_505_335" x1="73.5321" y1="330.7" x2="76.9991" y2="267.923" gradientUnits="userSpaceOnUse">
<stop stop-color="#FF9085"/>
<stop offset="1" stop-color="#FB6FBB"/>
</linearGradient>
<linearGradient id="paint16_linear_505_335" x1="85.8409" y1="101.883" x2="85.9104" y2="100.611" gradientUnits="userSpaceOnUse">
<stop stop-color="#311944"/>
<stop offset="1" stop-color="#A03976"/>
</linearGradient>
<linearGradient id="paint17_linear_505_335" x1="85.7949" y1="111.13" x2="85.8667" y2="109.84" gradientUnits="userSpaceOnUse">
<stop stop-color="#311944"/>
<stop offset="1" stop-color="#A03976"/>
</linearGradient>
<linearGradient id="paint18_linear_505_335" x1="85.75" y1="120.379" x2="85.8218" y2="119.07" gradientUnits="userSpaceOnUse">
<stop stop-color="#311944"/>
<stop offset="1" stop-color="#A03976"/>
</linearGradient>
<linearGradient id="paint19_linear_505_335" x1="85.6917" y1="130.202" x2="85.7657" y2="128.874" gradientUnits="userSpaceOnUse">
<stop stop-color="#311944"/>
<stop offset="1" stop-color="#A03976"/>
</linearGradient>
<linearGradient id="paint20_linear_505_335" x1="85.6457" y1="139.451" x2="85.7198" y2="138.104" gradientUnits="userSpaceOnUse">
<stop stop-color="#311944"/>
<stop offset="1" stop-color="#A03976"/>
</linearGradient>
<linearGradient id="paint21_linear_505_335" x1="85.5986" y1="148.7" x2="85.6749" y2="147.335" gradientUnits="userSpaceOnUse">
<stop stop-color="#311944"/>
<stop offset="1" stop-color="#A03976"/>
</linearGradient>
<linearGradient id="paint22_linear_505_335" x1="85.5515" y1="157.95" x2="85.6289" y2="156.567" gradientUnits="userSpaceOnUse">
<stop stop-color="#311944"/>
<stop offset="1" stop-color="#A03976"/>
</linearGradient>
<linearGradient id="paint23_linear_505_335" x1="85.5044" y1="167.202" x2="85.5818" y2="165.8" gradientUnits="userSpaceOnUse">
<stop stop-color="#311944"/>
<stop offset="1" stop-color="#A03976"/>
</linearGradient>
<linearGradient id="paint24_linear_505_335" x1="85.445" y1="177.025" x2="85.5235" y2="175.604" gradientUnits="userSpaceOnUse">
<stop stop-color="#311944"/>
<stop offset="1" stop-color="#A03976"/>
</linearGradient>
<linearGradient id="paint25_linear_505_335" x1="85.3967" y1="186.276" x2="85.4764" y2="184.836" gradientUnits="userSpaceOnUse">
<stop stop-color="#311944"/>
<stop offset="1" stop-color="#A03976"/>
</linearGradient>
<linearGradient id="paint26_linear_505_335" x1="85.3485" y1="195.527" x2="85.4292" y2="194.069" gradientUnits="userSpaceOnUse">
<stop stop-color="#311944"/>
<stop offset="1" stop-color="#A03976"/>
</linearGradient>
<linearGradient id="paint27_linear_505_335" x1="85.3003" y1="204.778" x2="85.381" y2="203.302" gradientUnits="userSpaceOnUse">
<stop stop-color="#311944"/>
<stop offset="1" stop-color="#A03976"/>
</linearGradient>
<linearGradient id="paint28_linear_505_335" x1="85.2509" y1="214.03" x2="85.3339" y2="212.536" gradientUnits="userSpaceOnUse">
<stop stop-color="#311944"/>
<stop offset="1" stop-color="#A03976"/>
</linearGradient>
<linearGradient id="paint29_linear_505_335" x1="85.2128" y1="222.711" x2="85.2969" y2="221.199" gradientUnits="userSpaceOnUse">
<stop stop-color="#311944"/>
<stop offset="1" stop-color="#A03976"/>
</linearGradient>
<linearGradient id="paint30_linear_505_335" x1="85.1634" y1="231.964" x2="85.2475" y2="230.432" gradientUnits="userSpaceOnUse">
<stop stop-color="#311944"/>
<stop offset="1" stop-color="#A03976"/>
</linearGradient>
<linearGradient id="paint31_linear_505_335" x1="85.1129" y1="241.215" x2="85.1993" y2="239.667" gradientUnits="userSpaceOnUse">
<stop stop-color="#311944"/>
<stop offset="1" stop-color="#A03976"/>
</linearGradient>
<linearGradient id="paint32_linear_505_335" x1="280.908" y1="87.1305" x2="252.145" y2="133.374" gradientUnits="userSpaceOnUse">
<stop stop-color="#311944"/>
<stop offset="1" stop-color="#893976"/>
</linearGradient>
<linearGradient id="paint33_linear_505_335" x1="282.151" y1="86.3992" x2="253.487" y2="132.485" gradientUnits="userSpaceOnUse">
<stop stop-color="#FF9085"/>
<stop offset="1" stop-color="#FB6FBB"/>
</linearGradient>
<linearGradient id="paint34_linear_505_335" x1="301.098" y1="98.0149" x2="275.037" y2="139.915" gradientUnits="userSpaceOnUse">
<stop stop-color="#FF9085"/>
<stop offset="1" stop-color="#FB6FBB"/>
</linearGradient>
<linearGradient id="paint35_linear_505_335" x1="271.135" y1="170.086" x2="278.466" y2="178.849" gradientUnits="userSpaceOnUse">
<stop stop-color="#FFC444"/>
<stop offset="1" stop-color="#F36F56"/>
</linearGradient>
<linearGradient id="paint36_linear_505_335" x1="266.471" y1="79.425" x2="277.385" y2="220.664" gradientUnits="userSpaceOnUse">
<stop stop-color="#311944"/>
<stop offset="1" stop-color="#A03976"/>
</linearGradient>
<linearGradient id="paint37_linear_505_335" x1="277.978" y1="300.572" x2="282.706" y2="303.714" gradientUnits="userSpaceOnUse">
<stop stop-color="#444B8C"/>
<stop offset="1" stop-color="#26264F"/>
</linearGradient>
<linearGradient id="paint38_linear_505_335" x1="282.558" y1="303.747" x2="281.523" y2="296.43" gradientUnits="userSpaceOnUse">
<stop stop-color="#FFC444"/>
<stop offset="1" stop-color="#F36F56"/>
</linearGradient>
<linearGradient id="paint39_linear_505_335" x1="278.332" y1="300.038" x2="283.061" y2="303.18" gradientUnits="userSpaceOnUse">
<stop stop-color="#444B8C"/>
<stop offset="1" stop-color="#26264F"/>
</linearGradient>
<linearGradient id="paint40_linear_505_335" x1="247.953" y1="302.946" x2="252.195" y2="306.719" gradientUnits="userSpaceOnUse">
<stop stop-color="#444B8C"/>
<stop offset="1" stop-color="#26264F"/>
</linearGradient>
<linearGradient id="paint41_linear_505_335" x1="252.039" y1="306.727" x2="252.039" y2="299.337" gradientUnits="userSpaceOnUse">
<stop stop-color="#FFC444"/>
<stop offset="1" stop-color="#F36F56"/>
</linearGradient>
<linearGradient id="paint42_linear_505_335" x1="251.691" y1="310.116" x2="279.352" y2="198.433" gradientUnits="userSpaceOnUse">
<stop stop-color="#444B8C"/>
<stop offset="1" stop-color="#26264F"/>
</linearGradient>
<linearGradient id="paint43_linear_505_335" x1="251.525" y1="78.7486" x2="262.441" y2="219.987" gradientUnits="userSpaceOnUse">
<stop stop-color="#311944"/>
<stop offset="1" stop-color="#A03976"/>
</linearGradient>
<linearGradient id="paint44_linear_505_335" x1="248.379" y1="302.467" x2="252.621" y2="306.24" gradientUnits="userSpaceOnUse">
<stop stop-color="#444B8C"/>
<stop offset="1" stop-color="#26264F"/>
</linearGradient>
<linearGradient id="paint45_linear_505_335" x1="264.758" y1="173.483" x2="261.318" y2="184.031" gradientUnits="userSpaceOnUse">
<stop stop-color="#FFC444"/>
<stop offset="1" stop-color="#F36F56"/>
</linearGradient>
<linearGradient id="paint46_linear_505_335" x1="264.764" y1="168.767" x2="259.227" y2="218.695" gradientUnits="userSpaceOnUse">
<stop stop-color="#FFC444"/>
<stop offset="1" stop-color="#F36F56"/>
</linearGradient>
<linearGradient id="paint47_linear_505_335" x1="264.994" y1="168.793" x2="259.457" y2="218.72" gradientUnits="userSpaceOnUse">
<stop stop-color="#FFC444"/>
<stop offset="1" stop-color="#F36F56"/>
</linearGradient>
<linearGradient id="paint48_linear_505_335" x1="264.477" y1="168.736" x2="258.941" y2="218.663" gradientUnits="userSpaceOnUse">
<stop stop-color="#FFC444"/>
<stop offset="1" stop-color="#F36F56"/>
</linearGradient>
<linearGradient id="paint49_linear_505_335" x1="266.404" y1="166.112" x2="259.759" y2="167.971" gradientUnits="userSpaceOnUse">
<stop stop-color="#FFC444"/>
<stop offset="1" stop-color="#F36F56"/>
</linearGradient>
<linearGradient id="paint50_linear_505_335" x1="241.261" y1="79.5415" x2="252.176" y2="220.781" gradientUnits="userSpaceOnUse">
<stop stop-color="#311944"/>
<stop offset="1" stop-color="#A03976"/>
</linearGradient>
</defs>
</svg>
